<svg width="225" height="225" viewBox="0 0 225 225" fill="none" xmlns="http://www.w3.org/2000/svg">

<path d="M1070 2233 c0 -10 -1 -64 -3 -121 l-2 -102 28 0 28 0 -3 118 c-3 113
-4 117 -25 120 -17 2 -23 -2 -23 -15z"/>
<path d="M1150 2130 l0 -120 25 0 25 0 0 120 0 120 -25 0 -25 0 0 -120z"/>
<path d="M980 2163 c-137 -24 -288 -83 -403 -156 -86 -56 -222 -191 -281 -282
-59 -89 -115 -215 -142 -320 -29 -110 -27 -371 4 -485 48 -175 135 -324 266
-456 130 -130 277 -214 455 -260 110 -28 151 -31 151 -9 0 10 -10 15 -28 15
-16 0 -63 9 -105 19 -341 88 -600 336 -703 677 -25 82 -28 103 -28 264 0 164
1 181 27 265 113 364 404 628 762 689 52 9 71 17 73 29 3 17 -1 18 -48 10z"/>
<path d="M1232 2153 c2 -13 21 -20 73 -29 359 -61 666 -346 762 -711 34 -128
38 -326 9 -447 -79 -341 -327 -612 -659 -720 -41 -13 -99 -27 -130 -31 -39 -5
-57 -12 -57 -21 0 -38 207 14 355 89 178 90 344 257 437 442 64 126 108 309
108 445 0 89 -27 239 -57 325 -131 365 -421 604 -811 669 -28 5 -33 3 -30 -11z"/>
<path d="M972 2093 c2 -21 9 -29 27 -31 19 -3 22 0 17 13 -3 9 -6 23 -6 31 0
8 -9 14 -21 14 -16 0 -20 -5 -17 -27z"/>
<path d="M1240 2106 c0 -8 -3 -21 -6 -30 -4 -11 0 -16 14 -16 20 0 32 18 32
46 0 8 -9 14 -20 14 -11 0 -20 -6 -20 -14z"/>
<path d="M1326 2093 c-10 -25 -7 -41 10 -47 20 -8 21 -7 29 25 5 21 2 27 -14
32 -12 3 -22 -1 -25 -10z"/>
<path d="M885 2073 c8 -35 10 -37 30 -29 25 9 15 50 -14 54 -21 3 -23 1 -16
-25z"/>
<path d="M803 2074 c-8 -4 -9 -13 -1 -34 8 -24 13 -28 28 -20 12 6 16 17 13
35 -5 24 -15 29 -40 19z"/>
<path d="M1407 2058 c-7 -26 -1 -38 19 -38 19 0 36 42 20 52 -20 13 -34 8 -39
-14z"/>
<path d="M728 2042 c-21 -4 -21 -4 -6 -37 12 -27 16 -29 36 -16 20 12 -7 58
-30 53z"/>
<path d="M1492 2025 c-10 -21 -9 -26 7 -34 15 -8 20 -5 30 16 10 21 9 28 -1
34 -20 13 -24 11 -36 -16z"/>
<path d="M646 1997 c-15 -11 -15 -14 -1 -34 9 -13 22 -20 30 -17 18 7 19 23 1
46 -10 14 -16 15 -30 5z"/>
<path d="M1572 1989 c-11 -17 -11 -24 0 -36 11 -13 14 -12 30 7 14 17 16 26 7
36 -15 19 -22 18 -37 -7z"/>
<path d="M1082 1939 c-48 -48 -51 -54 -37 -69 14 -16 11 -24 -41 -89 l-56 -72
-29 23 c-15 13 -62 51 -104 86 l-75 63 0 -165 c0 -126 3 -166 13 -166 113 -2
771 1 774 3 2 2 2 76 1 165 l-3 160 -98 -85 c-54 -47 -102 -82 -106 -77 -5 5
-31 38 -60 73 -45 58 -49 66 -36 81 13 14 9 22 -39 69 l-53 52 -51 -52z m81
-81 l-27 -28 -28 27 -28 27 27 28 27 28 28 -27 28 -27 -27 -28z m-46 -87 c-51
-70 -74 -91 -99 -91 -16 0 -28 3 -28 6 0 3 23 35 51 71 49 61 52 63 70 47 15
-13 16 -20 6 -33z m116 -15 c26 -34 47 -66 47 -69 0 -9 -42 -9 -55 1 -6 4 -27
28 -48 53 -34 42 -35 46 -20 62 10 9 20 17 23 17 3 0 26 -29 53 -64z m-343
-68 c0 -5 -21 -8 -47 -6 l-48 3 -3 49 -3 48 50 -42 c28 -24 51 -47 51 -52z
m595 45 l-2 -48 -53 -3 c-29 -2 -50 1 -49 6 4 9 97 92 104 92 1 0 2 -21 0 -47z
m-140 -96 c133 -2 140 -3 140 -22 0 -20 -8 -20 -347 -23 l-348 -2 0 25 0 25
143 0 142 0 29 41 29 41 36 -41 36 -41 140 -3z"/>
<path d="M573 1953 c-19 -7 -16 -27 6 -47 15 -14 20 -14 30 -3 9 11 7 19 -6
35 -10 11 -24 18 -30 15z"/>
<path d="M1646 1938 c-14 -20 -14 -23 0 -31 20 -12 49 15 41 37 -9 22 -23 20
-41 -6z"/>
<path d="M911 1914 c-12 -20 -21 -38 -19 -39 23 -19 50 -24 71 -14 12 6 23 13
25 14 5 4 -42 75 -50 75 -3 0 -16 -16 -27 -36z"/>
<path d="M1311 1921 c-26 -36 -26 -47 -2 -61 25 -13 32 -12 55 5 18 13 18 15
-4 49 -12 20 -23 36 -25 36 -2 0 -13 -13 -24 -29z"/>
<path d="M502 1897 c-11 -12 -11 -19 0 -36 15 -25 22 -26 37 -7 9 10 7 19 -7
36 -16 19 -19 20 -30 7z"/>
<path d="M1716 1888 c-11 -16 -13 -25 -4 -35 14 -18 20 -16 40 10 15 22 15 24
-2 35 -16 10 -22 8 -34 -10z"/>
<path d="M900 1844 c0 -3 10 -19 21 -36 l21 -29 19 31 c24 39 24 43 -1 28 -16
-10 -24 -10 -40 0 -11 7 -20 9 -20 6z"/>
<path d="M1310 1819 c13 -19 24 -35 26 -37 1 -2 11 13 22 32 l21 35 -23 -11
c-17 -7 -30 -7 -46 2 l-23 12 23 -33z"/>
<path d="M1782 1827 c-20 -22 -21 -25 -7 -37 14 -11 19 -10 38 8 19 20 20 24
6 37 -14 14 -17 13 -37 -8z"/>
<path d="M431 1827 c-17 -21 23 -55 44 -37 14 12 14 15 -1 31 -20 23 -28 23
-43 6z"/>
<path d="M372 1760 c-9 -15 -7 -21 12 -33 17 -12 26 -13 35 -4 16 16 14 23
-12 40 -21 14 -24 13 -35 -3z"/>
<path d="M1841 1763 c-19 -15 -20 -21 -9 -35 12 -16 15 -16 37 3 22 18 23 22
9 35 -13 13 -17 13 -37 -3z"/>
<path d="M1892 1692 c-19 -15 -21 -20 -9 -36 12 -17 14 -17 35 1 20 15 21 21
10 35 -12 16 -14 16 -36 0z"/>
<path d="M321 1686 c-10 -11 -7 -17 11 -30 20 -14 24 -14 37 -1 13 13 13 17
-4 30 -25 18 -30 18 -44 1z"/>
<path d="M1937 1616 c-16 -13 -15 -46 2 -46 19 0 44 29 38 44 -8 19 -16 20
-40 2z"/>
<path d="M277 1613 c-13 -13 -6 -28 18 -39 21 -10 25 -9 31 8 8 27 -29 51 -49
31z"/>
<path d="M1978 1538 c-23 -8 -26 -13 -18 -28 10 -18 44 -18 56 1 12 20 -11 36
-38 27z"/>
<path d="M236 1524 c-8 -20 -8 -21 25 -29 20 -5 28 -2 33 11 8 20 8 21 -25 29
-20 5 -28 2 -33 -11z"/>
<path d="M745 1499 c-4 -6 -3 -15 2 -20 5 -5 168 -8 394 -7 333 3 384 5 384
18 0 13 -51 15 -387 18 -273 1 -389 -1 -393 -9z"/>
<path d="M207 1441 c-6 -25 0 -31 29 -31 44 0 42 31 -2 44 -16 5 -23 2 -27
-13z"/>
<path d="M1999 1453 c-11 -3 -15 -11 -12 -24 5 -16 11 -19 32 -14 32 8 33 9
25 29 -6 16 -14 18 -45 9z"/>
<path d="M740 1434 c0 -3 30 -123 66 -267 l66 -261 -49 -46 c-26 -25 -62 -62
-79 -82 -23 -27 -37 -35 -52 -31 -26 6 -47 30 -59 68 l-10 30 -21 -35 c-68
-110 34 -230 195 -230 39 0 44 -3 62 -38 10 -20 33 -50 50 -67 29 -27 34 -28
63 -17 30 11 33 10 60 -23 41 -49 84 -78 107 -70 11 3 42 29 69 56 45 46 52
49 72 39 32 -17 63 2 105 65 l34 52 65 5 c89 8 151 44 178 105 22 50 19 94 -9
125 -22 25 -27 23 -42 -18 -8 -22 -22 -39 -39 -45 -24 -9 -29 -6 -61 33 -19
24 -54 61 -78 83 l-43 40 65 250 c36 138 65 258 65 268 0 10 -7 17 -18 17 -16
0 -28 -36 -82 -247 -35 -137 -65 -250 -67 -252 -1 -2 -25 8 -52 22 -57 31 -78
33 -126 10 -34 -16 -38 -16 -92 2 l-56 19 -58 -31 c-33 -17 -59 -29 -59 -28 0
5 -120 468 -126 488 -5 15 -44 26 -44 11z m630 -571 c26 -23 66 -67 89 -97 52
-68 95 -82 141 -47 41 30 44 27 19 -18 -31 -55 -82 -76 -184 -75 -97 0 -147
20 -223 89 -63 57 -80 83 -58 91 8 3 45 -17 87 -50 40 -30 74 -54 76 -53 1 2
-24 32 -57 68 -58 61 -69 88 -43 96 7 3 43 -25 81 -60 64 -60 141 -117 159
-117 5 0 -8 15 -28 33 -48 43 -189 207 -189 219 0 15 78 -33 130 -79z m-371
50 c-14 -16 -56 -64 -95 -108 -38 -44 -78 -88 -89 -98 -20 -18 -19 -18 10 -4
17 8 68 49 115 91 47 42 90 76 96 76 7 0 15 -7 18 -16 4 -11 -14 -37 -56 -80
-33 -35 -57 -64 -52 -64 5 0 41 25 79 55 45 36 72 52 79 45 25 -25 -61 -113
-159 -160 -56 -27 -154 -37 -213 -21 -48 13 -97 54 -107 89 l-7 23 34 -21 c63
-38 67 -37 200 108 43 46 138 112 162 112 6 0 -2 -12 -15 -27z m123 -243 c4
-24 5 -23 14 8 l9 33 33 -34 33 -34 -38 -36 c-20 -21 -43 -37 -49 -37 -12 0
-74 65 -74 77 0 14 54 63 61 56 4 -5 9 -19 11 -33z m-82 -89 c0 -4 -18 -25
-40 -46 -46 -45 -61 -42 -94 14 -21 37 -21 36 20 45 30 7 31 6 27 -21 -4 -24
-1 -22 23 16 l27 44 19 -22 c10 -13 18 -26 18 -30z m239 13 c16 -20 21 -22 21
-10 0 13 6 15 28 10 43 -10 44 -18 9 -59 -37 -43 -49 -41 -101 14 -29 30 -29
31 -11 51 24 26 29 25 54 -6z m-176 -71 c8 -10 17 -29 19 -43 4 -23 5 -23 14
9 14 49 38 61 65 34 l22 -22 -29 -34 c-47 -55 -62 -62 -92 -40 -14 11 -35 31
-46 46 -19 26 -19 27 -1 47 22 24 28 25 48 3z"/>
<path d="M829 1380 l15 -59 109 -3 109 -3 -1 -137 -2 -137 32 -16 c32 -17 71
-14 96 7 9 7 13 50 13 149 l0 139 108 0 109 0 12 43 c7 23 15 50 17 60 5 16
-15 17 -314 17 l-319 0 16 -60z"/>
<path d="M2033 1372 c-15 -2 -23 -10 -23 -23 0 -14 7 -19 30 -19 17 0 30 5 30
13 0 21 -14 32 -37 29z"/>
<path d="M187 1351 c-3 -14 2 -21 21 -26 16 -4 28 -1 33 7 13 20 11 25 -13 32
-33 8 -35 8 -41 -13z"/>
<path d="M2043 1282 c-15 -2 -23 -10 -23 -23 0 -14 7 -19 30 -19 23 0 30 5 30
19 0 24 -8 28 -37 23z"/>
<path d="M177 1261 c-4 -15 2 -20 24 -23 25 -4 29 -1 29 19 0 18 -6 23 -24 23
-15 0 -26 -7 -29 -19z"/>
<path d="M2037 1193 c-4 -3 -7 -15 -7 -25 0 -13 7 -18 25 -18 20 0 25 5 25 25
0 18 -5 25 -18 25 -10 0 -22 -3 -25 -7z"/>
<path d="M170 1170 c0 -16 7 -20 30 -20 23 0 30 4 30 20 0 16 -7 20 -30 20
-23 0 -30 -4 -30 -20z"/>
<path d="M2024 1095 c-8 -19 10 -35 39 -35 10 0 17 8 17 20 0 11 -4 20 -9 20
-5 0 -16 3 -25 6 -10 4 -18 -1 -22 -11z"/>
<path d="M177 1080 c3 -13 14 -20 29 -20 17 0 24 6 24 20 0 15 -7 20 -29 20
-24 0 -28 -3 -24 -20z"/>
<path d="M203 1013 c-20 -7 -16 -43 5 -43 27 0 43 15 36 33 -6 17 -18 20 -41
10z"/>
<path d="M2010 1001 c0 -21 39 -36 54 -21 15 15 -2 40 -29 40 -18 0 -25 -5
-25 -19z"/>
<path d="M1995 932 c-12 -12 -3 -33 18 -41 22 -9 37 1 37 25 0 12 -46 25 -55
16z"/>
<path d="M217 923 c-4 -3 -7 -15 -7 -25 0 -15 5 -17 28 -12 34 9 36 10 29 29
-6 15 -38 21 -50 8z"/>
<path d="M253 843 c-7 -2 -13 -14 -13 -25 0 -17 4 -19 27 -13 35 8 35 9 27 29
-6 16 -18 19 -41 9z"/>
<path d="M1963 835 c-7 -19 -5 -20 25 -29 26 -9 44 20 21 35 -21 13 -39 11
-46 -6z"/>
<path d="M1929 763 c-11 -13 -10 -17 6 -29 11 -8 24 -13 30 -11 18 6 16 32 -4
44 -16 10 -22 9 -32 -4z"/>
<path d="M288 763 c-20 -5 -22 -12 -9 -32 13 -21 63 2 55 24 -6 15 -14 17 -46
8z"/>
<path d="M335 686 c-17 -12 -16 -46 2 -46 19 1 43 29 37 44 -7 20 -15 20 -39
2z"/>
<path d="M1883 684 c-6 -15 19 -44 38 -44 17 0 19 35 3 47 -24 17 -33 16 -41
-3z"/>
<path d="M383 611 c-16 -14 -19 -21 -10 -30 24 -24 63 1 51 33 -8 20 -14 20
-41 -3z"/>
<path d="M1834 615 c-7 -17 12 -45 31 -45 21 0 25 27 6 44 -22 20 -30 20 -37
1z"/>
<path d="M436 541 c-15 -16 -15 -19 -1 -31 21 -18 61 16 44 37 -15 17 -23 17
-43 -6z"/>
<path d="M1775 549 c-4 -5 1 -19 11 -30 16 -18 19 -18 33 -4 15 15 14 18 -3
31 -24 17 -33 18 -41 3z"/>
<path d="M501 479 c-11 -18 -11 -23 1 -30 20 -13 26 -11 39 12 9 17 8 23 -2
30 -20 12 -23 11 -38 -12z"/>
<path d="M1711 487 c-17 -21 23 -55 44 -37 14 12 14 15 -1 31 -20 23 -28 23
-43 6z"/>
<path d="M575 430 c-15 -16 -15 -22 -5 -35 17 -21 25 -19 38 9 16 35 -8 54
-33 26z"/>
<path d="M1651 441 c-12 -8 -13 -14 -3 -36 10 -22 15 -24 32 -15 19 10 19 12
4 35 -9 14 -17 25 -18 25 0 0 -7 -4 -15 -9z"/>
<path d="M646 378 c-14 -19 -13 -23 2 -34 13 -10 19 -9 29 5 17 22 16 38 -2
45 -8 3 -21 -4 -29 -16z"/>
<path d="M1572 391 c-12 -7 -12 -12 -1 -30 24 -37 60 -20 39 19 -12 22 -18 24
-38 11z"/>
<path d="M440 362 c0 -4 4 -12 10 -18 7 -7 0 -22 -20 -44 -29 -35 -38 -60 -21
-60 4 0 21 18 36 40 29 41 39 47 50 30 4 -6 11 -8 17 -4 5 3 -5 19 -24 35 -34
29 -48 35 -48 21z"/>
<path d="M722 335 c-10 -21 -9 -26 8 -35 17 -9 22 -7 30 16 8 21 8 29 -2 36
-20 12 -24 10 -36 -17z"/>
<path d="M1495 350 c-9 -15 4 -50 20 -50 21 0 27 17 15 40 -12 22 -25 26 -35
10z"/>
<path d="M806 303 c-7 -24 5 -42 25 -43 14 0 20 53 7 61 -21 13 -25 11 -32
-18z"/>
<path d="M1070 328 c0 -2 -1 -56 -3 -121 l-2 -117 28 0 27 0 0 120 0 120 -25
0 c-14 0 -25 -1 -25 -2z"/>
<path d="M1150 210 l0 -120 25 0 25 0 0 120 0 120 -25 0 -25 0 0 -120z"/>
<path d="M1423 323 c-15 -5 -17 -32 -5 -51 14 -21 44 -3 36 22 -8 27 -16 35
-31 29z"/>
<path d="M1717 304 c-3 -3 4 -21 14 -39 l20 -33 -47 14 c-26 8 -51 14 -55 14
-4 0 8 -25 28 -55 20 -30 40 -52 44 -49 5 3 -1 19 -13 36 l-22 31 31 -6 c17
-3 43 -9 58 -13 l26 -7 -31 52 c-33 53 -44 64 -53 55z"/>
<path d="M888 275 c-6 -28 -1 -35 23 -35 16 0 33 43 21 55 -14 14 -40 3 -44
-20z"/>
<path d="M1324 278 c3 -13 6 -26 6 -30 0 -15 40 -8 40 6 0 28 -13 46 -32 46
-16 0 -19 -5 -14 -22z"/>
<path d="M527 282 c-9 -2 -24 -17 -33 -34 -15 -29 -15 -32 4 -57 23 -31 72
-40 96 -16 17 17 21 61 8 82 -10 16 -53 30 -75 25z m53 -37 c15 -18 10 -45
-12 -59 -33 -20 -69 20 -54 60 7 18 50 18 66 -1z"/>
<path d="M977 258 c-7 -26 -8 -25 18 -30 15 -2 21 3 23 25 3 21 -1 27 -16 27
-12 0 -22 -9 -25 -22z"/>
<path d="M1240 257 c0 -30 6 -36 29 -30 13 3 17 11 13 29 -6 33 -42 33 -42 1z"/>
<path d="M631 179 c-11 -29 -21 -56 -21 -60 0 -17 17 -9 27 13 9 22 11 21 22
-15 7 -20 17 -37 23 -37 10 0 6 27 -8 63 -4 11 5 21 26 32 24 12 29 20 21 28
-8 8 -14 8 -23 -1 -19 -19 -37 -14 -31 8 11 41 -15 18 -36 -31z"/>
<path d="M1580 161 c0 -41 4 -71 10 -71 6 0 10 7 10 15 0 21 38 39 55 25 7 -6
16 -7 19 -2 3 5 -17 30 -44 56 l-50 47 0 -70z m40 -2 c0 -5 -4 -9 -10 -9 -5 0
-10 7 -10 16 0 8 5 12 10 9 6 -3 10 -10 10 -16z"/>
<path d="M1500 165 c8 -22 7 -27 -13 -34 -18 -7 -23 -4 -30 15 -8 23 -27 34
-27 15 0 -27 35 -111 46 -111 10 0 11 6 4 24 -5 13 -6 27 -3 30 14 13 42 5 48
-14 6 -18 25 -29 25 -13 0 25 -36 113 -47 113 -9 0 -10 -6 -3 -25z"/>
<path d="M743 122 l-20 -60 39 -10 c43 -11 53 3 13 18 -33 13 -23 42 11 34 29
-8 33 12 3 21 -32 11 -16 30 22 27 42 -4 28 15 -18 24 -30 6 -31 5 -50 -54z"/>
<path d="M860 155 c0 -5 -7 -36 -14 -67 -12 -50 -12 -58 0 -58 8 0 14 8 14 18
0 9 4 23 9 31 7 10 15 4 32 -28 13 -22 27 -41 30 -41 7 0 30 122 24 128 -9 9
-25 -11 -25 -32 0 -41 -13 -37 -42 11 -15 27 -28 44 -28 38z"/>
<path d="M1368 135 c-12 -28 -28 -33 -28 -10 0 8 -4 15 -10 15 -13 0 -13 -21
1 -76 12 -45 29 -60 29 -24 0 24 13 26 30 5 7 -8 22 -15 34 -15 17 0 15 5 -17
31 -36 30 -36 31 -22 59 18 34 18 40 5 40 -6 0 -16 -11 -22 -25z"/>

<defs>
<linearGradient id="paint0_linear_2290_2172" x1="4.83591" y1="2.61345" x2="15.441" y2="21.0019" gradientUnits="userSpaceOnUse">
<stop stop-color="#1DC071"/>
<stop offset="1" stop-color="#77D9AA"/>
</linearGradient>
<linearGradient id="paint1_linear_2290_2172" x1="22.5435" y1="1.92645" x2="22.5205" y2="11.2863" gradientUnits="userSpaceOnUse">
<stop stop-color="#1DC071"/>
<stop offset="1" stop-color="#77D9AA"/>
</linearGradient>
</defs>

</svg>
